#!OML:ASF H:\Terrain\Patient Classification 1\PLAYGROUND\JustinFriday\JustinFriday.ASF
:FULLY-SPECIFIED
:DEGREES
293
root 12.8234 16.9223 18.6331 173.857 -0.043039 -178.264
lowerback 12.0227 -0.0109518 0.100231
upperback -1.33479 0.0893796 1.60822
thorax -8.18787 0.0621498 1.63919
lowerneck 4.82653 -5.43336 -8.93939
upperneck -30.1673 -2.66486 11.8784
head -9.86607 -0.309109 5.87063
rclavicle 8.32411e-016 6.75868e-015
rhumerus 59.6943 -1.5224 -60.1922
rradius 59.3851
rwrist -20.4604
rhand 28.1315 10.2411
rfingers 7.12502
rthumb 52.0194 -9.85294
lclavicle 8.32411e-016 6.75868e-015
lhumerus 63.8303 2.10951 49.2761
lradius 67.2508
lwrist -10.9921
lhand -41.4967 -14.2856
lfingers 7.12502
lthumb -14.4102 15.1942
rfemur -29.51 -2.5401 18.1417
rtibia 45.4616
rfoot -7.59199 -6.62343
rtoes 6.10294
lfemur 15.6495 -6.18559 -16.8775
ltibia 28.0264
lfoot -23.1819 13.3349
ltoes -28.6917
294
root 12.8799 16.9385 18.4871 173.621 -0.249702 -178.242
lowerback 12.1302 0.0390954 0.0849243
upperback -1.39973 0.152436 1.51232
thorax -8.32101 0.0936201 1.53483
lowerneck 5.25151 -1.28107 -7.97509
upperneck -31.4797 -4.21398 9.85454
head -10.5183 -3.47827 5.66925
rclavicle 2.18663e-015 -6.16232e-015
rhumerus 61.9935 -2.70022 -61.186
rradius 57.1557
rwrist -20.1708
rhand 31.4293 13.0691
rfingers 7.12502
rthumb 54.9872 -5.07886
lclavicle 2.18663e-015 -6.16232e-015
lhumerus 66.3886 3.14942 48.3735
lradius 65.4899
lwrist -10.2987
lhand -43.339 -14.7134
lfingers 7.12502
lthumb -16.1848 14.631
rfemur -28.8513 -3.30038 18.3667
rtibia 45.5936
rfoot -7.75999 -6.1189
rtoes 5.641
lfemur 16.0311 -5.98785 -16.5311
ltibia 28.3256
lfoot -23.159 12.5268
ltoes -28.4651
295
root 12.9372 16.9578 18.3397 173.29 -0.6638 -178.731
lowerback 12.3729 0.0646963 -0.460465
upperback -1.50415 0.0962936 1.25485
thorax -8.57235 0.0919178 1.58137
lowerneck 5.86225 -1.46251 -6.90941
upperneck -31.9015 -4.59354 9.02405
head -10.8213 -3.67688 5.26516
rclavicle -2.21148e-015 7.35503e-015
rhumerus 64.1634 -3.74888 -62.3415
rradius 54.9649
rwrist -19.9603
rhand 34.7884 15.1617
rfingers 7.12502
rthumb 57.9527 -0.602119
lclavicle -2.21148e-015 7.35503e-015
lhumerus 68.8488 4.2284 47.4393
lradius 63.6056
lwrist -9.40676
lhand -46.1197 -16.7345
lfingers 7.12502
lthumb -18.8608 12.3711
rfemur -28.0064 -4.36067 17.9627
rtibia 45.6616
rfoot -7.94433 -5.33427
rtoes 6.82986
lfemur 16.4636 -6.13515 -16.877
ltibia 28.7248
lfoot -22.3707 12.0343
ltoes -29.2057
296
root 12.9925 16.9856 18.1946 173.029 -1.13581 -178.821
lowerback 12.539 0.0583297 -0.644128
upperback -1.58866 0.0554176 1.14995
thorax -8.75843 0.0817085 1.58278
lowerneck 5.78658 -1.59044 -7.12167
upperneck -31.5966 -4.59841 9.52095
head -10.6596 -3.69078 5.45388
rclavicle -1.6027e-015 5.1684e-015
rhumerus 66.4759 -4.74196 -63.7535
rradius 52.8334
rwrist -19.5867
rhand 37.859 16.8774
rfingers 7.12502
rthumb 60.5979 3.74051
lclavicle -1.6027e-015 5.1684e-015
lhumerus 71.0143 5.10618 47.0933
lradius 61.9625
lwrist -9.29775
lhand -46.7385 -17.1754
lfingers 7.12502
lthumb -19.4558 11.8712
rfemur -27.1444 -5.42213 17.963
rtibia 45.6665
rfoot -8.1239 -4.57395
rtoes 8.82184
lfemur 16.8054 -6.43232 -16.7646
ltibia 29.1064
lfoot -20.9359 11.4526
ltoes -30.0556
297
root 13.0497 17.0266 18.0523 172.869 -1.50818 -178.335
lowerback 12.6245 0.0719686 -0.327627
upperback -1.68758 0.132223 1.2682
thorax -8.91733 0.106948 1.5163
lowerneck 5.72006 -1.66922 -7.54892
upperneck -31.5599 -4.63528 9.99434
head -10.597 -3.70759 5.69813
rclavicle 3.85145e-016 7.7526e-015
rhumerus 68.8764 -5.68095 -65.2841
rradius 50.4842
rwrist -18.4529
rhand 40.0789 19.5028
rfingers 7.12502
rthumb 62.4605 8.59439
lclavicle 3.85145e-016 7.7526e-015
lhumerus 73.2688 5.93979 46.9959
lradius 60.0639
lwrist -9.46245
lhand -44.8131 -15.7113
lfingers 7.12502
lthumb -17.6038 13.5117
rfemur -26.2994 -6.13817 18.598
rtibia 45.5352
rfoot -8.36927 -4.15272
rtoes 11.0322
lfemur 16.9431 -6.50025 -15.8366
ltibia 29.4956
lfoot -19.1138 10.748
ltoes -31.4455
298
root 13.1067 17.083 17.9087 172.851 -2.00595 -178.097
lowerback 12.5516 0.0741516 -0.349452
upperback -1.90089 0.145732 1.39297
thorax -9.10886 0.120902 1.661
lowerneck 5.56084 -1.78012 -8.43347
upperneck -31.0687 -4.6085 10.7551
head -10.324 -3.64854 6.07683
rclavicle 1.59028e-015 5.26779e-015
rhumerus 71.0855 -6.35028 -66.7641
rradius 48.122
rwrist -16.9209
rhand 41.6336 21.7886
rfingers 7.12502
rthumb 63.7348 12.6367
lclavicle 1.59028e-015 5.26779e-015
lhumerus 75.2563 6.73952 47.0997
lradius 58.0794
lwrist -9.60292
lhand -43.7443 -15.5615
lfingers 7.12502
lthumb -16.575 13.7506
rfemur -25.5313 -6.9318 18.953
rtibia 45.2338
rfoot -8.64936 -3.90831
rtoes 12.2543
lfemur 16.7907 -6.41459 -15.0626
ltibia 29.9503
lfoot -18.594 8.90046
ltoes -30.2246
